HIERARCHY
ROOT Hips
{
	OFFSET -0.001795 -0.223333 0.028219
	CHANNELS 6 Xposition Yposition Zposition Zrotation Yrotation Xrotation 
	JOINT LeftUpLeg
	{
		OFFSET 0.069520 -0.091406 -0.006815
		CHANNELS 3 Zrotation Yrotation Xrotation
		JOINT LeftLeg
		{
			OFFSET 0.034277 -0.375199 -0.004496
			CHANNELS 3 Zrotation Yrotation Xrotation
			JOINT LeftFoot
			{
				OFFSET -0.013596 -0.397961 -0.043693
				CHANNELS 3 Zrotation Yrotation Xrotation
				JOINT LeftToe
				{
					OFFSET 0.026358 -0.055791 0.119288
					CHANNELS 3 Zrotation Yrotation Xrotation
					End Site
					{
						OFFSET 0.000000 0.000000 0.000000
					}
				}
			}
		}
	}
	JOINT RightUpLeg
	{
		OFFSET -0.067670 -0.090522 -0.004320
		CHANNELS 3 Zrotation Yrotation Xrotation
		JOINT RightLeg
		{
			OFFSET -0.038290 -0.382569 -0.008850
			CHANNELS 3 Zrotation Yrotation Xrotation
			JOINT RightFoot
			{
				OFFSET 0.015774 -0.398415 -0.042312
				CHANNELS 3 Zrotation Yrotation Xrotation
				JOINT RightToe
				{
					OFFSET -0.025372 -0.048144 0.123348
					CHANNELS 3 Zrotation Yrotation Xrotation
					End Site
					{
						OFFSET 0.000000 0.000000 0.000000
					}
				}
			}
		}
	}
	JOINT Spine
	{
		OFFSET -0.002533 0.108963 -0.026696
		CHANNELS 3 Zrotation Yrotation Xrotation
		JOINT Spine1
		{
			OFFSET 0.005487 0.135180 0.001092
			CHANNELS 3 Zrotation Yrotation Xrotation
			JOINT Spine2
			{
				OFFSET 0.001457 0.052922 0.025425
				CHANNELS 3 Zrotation Yrotation Xrotation
				JOINT Neck
				{
					OFFSET -0.002778 0.213870 -0.042857
					CHANNELS 3 Zrotation Yrotation Xrotation
					JOINT Head
					{
						OFFSET 0.005152 0.064970 0.051349
						CHANNELS 3 Zrotation Yrotation Xrotation
						End Site
						{
							OFFSET 0.000000 0.000000 0.000000
						}
					}
				}
				JOINT LeftShoulder
				{
					OFFSET 0.078845 0.121749 -0.034090
					CHANNELS 3 Zrotation Yrotation Xrotation
					JOINT LeftArm
					{
						OFFSET 0.090977 0.030469 -0.008868
						CHANNELS 3 Zrotation Yrotation Xrotation
						JOINT LeftForeArm
						{
							OFFSET 0.259612 -0.012772 -0.027456
							CHANNELS 3 Zrotation Yrotation Xrotation
							JOINT LeftHand
							{
								OFFSET 0.249234 0.008986 -0.001171
								CHANNELS 3 Zrotation Yrotation Xrotation
								End Site
								{
									OFFSET 0.000000 0.000000 0.000000
								}
							}
						}
					}
				}
				JOINT RightShoulder
				{
					OFFSET -0.081759 0.118833 -0.038615
					CHANNELS 3 Zrotation Yrotation Xrotation
					JOINT RightArm
					{
						OFFSET -0.096012 0.032551 -0.009143
						CHANNELS 3 Zrotation Yrotation Xrotation
						JOINT RightForeArm
						{
							OFFSET -0.253742 -0.013329 -0.021401
							CHANNELS 3 Zrotation Yrotation Xrotation
							JOINT RightHand
							{
								OFFSET -0.255298 0.007772 -0.005559
								CHANNELS 3 Zrotation Yrotation Xrotation
								End Site
								{
									OFFSET 0.000000 0.000000 0.000000
								}
							}
						}
					}
				}
			}
		}
	}
}
MOTION
Frames: 10
Frame Time: 0.050000
-0.260142 0.964087 0.212045 -177.334091 76.466528 177.510750 0.057395 -1.157828 2.385278 1.647760 -0.748674 1.634006 -2.200938 2.594127 12.765288 0.000000 0.000000 0.000000 3.193424 -2.369986 8.264627 1.485004 -2.209565 0.395430 -9.519289 -15.267817 16.571476 0.000000 0.000000 0.000000 -6.157376 -0.666144 6.445671 4.343362 1.840415 -23.907344 1.903892 7.729028 30.442769 6.516968 9.302646 -39.763561 0.000000 0.000000 0.000000 -5.919111 -24.599518 -10.580021 -48.351109 -40.225872 4.787057 10.153080 -44.741918 -13.023325 0.000000 0.000000 0.000000 -6.971803 20.855879 15.516547 28.060375 77.078656 36.097934 -27.216960 -2.024938 -0.384001 0.000000 0.000000 0.000000 
-0.261044 0.964792 0.212013 -177.183992 76.440905 177.879420 0.040711 -1.125020 2.193062 1.607481 -0.754084 1.495787 -1.936323 3.030208 13.121912 0.000000 0.000000 0.000000 3.198821 -2.401154 8.372618 1.530865 -2.174177 0.136992 -9.714841 -15.643665 16.589421 0.000000 0.000000 0.000000 -5.898902 -0.635155 6.434722 4.083265 1.864290 -23.680466 1.789938 7.374364 30.203355 6.377913 9.280992 -39.642559 0.000000 0.000000 0.000000 -5.112613 -25.189184 -9.357878 -47.727219 -42.618788 4.386401 11.005663 -43.779064 -12.996770 0.000000 0.000000 0.000000 -8.181026 21.230803 14.712905 25.990660 77.481201 35.368551 -26.902155 -2.856627 -0.195322 0.000000 0.000000 0.000000 
-0.262643 0.965544 0.212139 -177.393840 77.234935 177.721840 -0.080019 -1.029106 1.935319 1.585381 -0.741021 1.412223 -1.173927 3.734954 13.198321 0.000000 0.000000 0.000000 3.159938 -2.398785 8.436337 1.433669 -2.044857 -0.068537 -9.548402 -15.434446 16.372629 0.000000 0.000000 0.000000 -6.061634 -0.684389 6.949196 4.328849 1.823025 -23.365111 1.566598 6.945132 29.714966 6.203041 9.266351 -39.181675 0.000000 0.000000 0.000000 -4.626380 -25.674799 -8.067571 -45.204517 -45.102680 4.024840 13.359162 -42.042963 -13.277469 0.000000 0.000000 0.000000 -9.622855 22.352172 13.777346 22.443515 77.906025 33.120649 -27.264426 -3.551004 -0.054572 0.000000 0.000000 0.000000 
-0.264514 0.965869 0.212201 -177.116180 78.085158 178.145136 -0.084471 -0.986975 1.834517 1.525787 -0.727528 1.131650 -0.561831 4.475075 13.482895 0.000000 0.000000 0.000000 3.373501 -2.256803 8.173466 1.165468 -1.854726 -0.221943 -9.554763 -15.490307 16.193772 0.000000 0.000000 0.000000 -6.024228 -0.729365 7.635627 4.723204 1.739708 -23.488114 1.212169 6.428264 29.526589 6.279246 9.218375 -38.815818 0.000000 0.000000 0.000000 -3.745607 -25.771172 -6.567883 -42.635033 -48.435902 3.146896 16.277706 -39.215052 -13.408617 0.000000 0.000000 0.000000 -11.012558 22.775284 12.421022 20.162608 78.773004 32.336778 -27.560888 -3.831955 -0.028448 0.000000 0.000000 0.000000 
-0.266010 0.965817 0.212040 -176.340572 79.575647 179.131291 -0.016769 -0.899980 1.457149 1.528491 -0.699792 1.323897 0.502419 5.546700 13.708059 0.000000 0.000000 0.000000 3.227960 -2.140729 7.875943 1.309996 -1.795158 -0.463421 -9.176261 -14.850784 15.825065 0.000000 0.000000 0.000000 -6.008836 -0.742458 7.912629 4.773974 1.712556 -23.001606 1.128450 6.056604 29.159422 6.119696 9.184274 -38.585410 0.000000 0.000000 0.000000 -3.037695 -25.818493 -5.183254 -39.278243 -51.318699 1.914947 18.152229 -36.404059 -12.959160 0.000000 0.000000 0.000000 -12.707716 23.790212 11.123653 16.447002 79.354214 30.065605 -28.264380 -4.145389 0.030514 0.000000 0.000000 0.000000 
-0.266944 0.965193 0.211643 -174.677012 81.301128 -178.972852 0.091188 -0.836266 1.203709 1.336486 -0.685785 1.407115 1.527186 6.596151 13.863926 0.000000 0.000000 0.000000 3.124898 -1.967094 7.401034 1.358602 -1.745613 -0.379225 -9.075376 -14.441077 15.798506 0.000000 0.000000 0.000000 -5.987770 -0.764817 8.279932 5.130348 1.616246 -22.746664 0.706813 5.954668 28.773925 6.366629 9.044369 -37.619958 0.000000 0.000000 0.000000 -2.584743 -25.957564 -3.928898 -35.736511 -53.397706 0.560456 19.959908 -33.215457 -12.319131 0.000000 0.000000 0.000000 -12.761743 24.363684 10.716921 13.294863 80.005322 27.269709 -29.417767 -3.416295 -0.153193 0.000000 0.000000 0.000000 
-0.267624 0.964647 0.211182 -172.156890 82.817569 -176.324782 0.531494 -0.850480 0.927702 1.302503 -0.659355 1.429393 2.465068 7.691374 14.365582 0.000000 0.000000 0.000000 3.166405 -1.853828 7.168599 1.475942 -1.680953 -0.626116 -9.177356 -14.411431 15.898167 0.000000 0.000000 0.000000 -6.148617 -0.789083 8.468487 5.459590 1.521700 -22.561661 0.620403 5.572572 28.687427 6.319915 8.975663 -37.425445 0.000000 0.000000 0.000000 -2.482165 -25.885604 -3.250350 -33.298191 -55.166036 -0.406490 20.630809 -30.365547 -11.264479 0.000000 0.000000 0.000000 -13.254611 24.967301 10.095477 13.250629 80.487492 27.263199 -31.388011 -2.100445 -0.454565 0.000000 0.000000 0.000000 
-0.268566 0.964027 0.210764 -168.957214 84.510638 -172.934483 0.916074 -0.831076 0.514345 1.150160 -0.643953 1.614254 3.021549 8.437564 14.522133 0.000000 0.000000 0.000000 3.175052 -1.631711 6.504284 1.650984 -1.761355 -0.060517 -9.275560 -14.779028 15.523392 0.000000 0.000000 0.000000 -6.168942 -0.784566 8.532995 5.579267 1.457956 -22.011969 0.405687 5.534573 27.986424 6.658833 8.728333 -36.375348 0.000000 0.000000 0.000000 -2.408528 -25.929826 -2.474115 -31.001097 -56.160148 -1.273801 21.516773 -27.882327 -10.512884 0.000000 0.000000 0.000000 -12.497574 25.567683 10.366718 12.525986 80.686140 25.748410 -33.761145 0.088223 -0.993639 0.000000 0.000000 0.000000 
-0.269793 0.963490 0.210462 -164.551895 85.594793 -168.246281 1.506331 -0.863548 -0.076768 0.688619 -0.680451 2.003194 3.700653 9.146547 14.746449 0.000000 0.000000 0.000000 3.135256 -1.458768 5.903907 2.025494 -1.866951 0.034355 -9.516014 -15.150422 15.492778 0.000000 0.000000 0.000000 -6.542291 -0.803904 8.454532 5.943351 1.344925 -22.481459 0.438863 5.267641 28.387760 6.458081 8.752025 -36.601181 0.000000 0.000000 0.000000 -2.478655 -25.979223 -2.216884 -29.407689 -56.799066 -1.877706 22.433689 -26.882503 -10.349804 0.000000 0.000000 0.000000 -12.351406 25.993446 10.349779 12.911565 80.687104 25.621582 -35.458945 1.427703 -1.349691 0.000000 0.000000 0.000000 
-0.271051 0.962866 0.210043 -155.948857 86.528100 -159.495008 1.977278 -0.915452 -0.311321 0.525925 -0.678231 2.133160 4.182853 9.493442 14.556541 0.000000 0.000000 0.000000 3.452665 -1.293059 5.497079 1.998061 -1.832106 0.180025 -9.617616 -15.643617 15.096219 0.000000 0.000000 0.000000 -6.712348 -0.804437 8.386411 6.335752 1.234147 -22.397316 0.306603 5.534760 27.876837 6.866989 8.523104 -35.472489 0.000000 0.000000 0.000000 -2.782097 -26.475898 -2.044239 -28.555797 -56.370644 -1.851763 23.082645 -26.295173 -10.320369 0.000000 0.000000 0.000000 -11.231826 26.300324 11.068997 11.943008 79.965956 23.534576 -37.477906 3.853992 -1.968180 0.000000 0.000000 0.000000 
